<svg class="svg-icon" style="width: 1em;height: 1em;vertical-align: middle;fill: currentColor;overflow: hidden;" viewBox="0 0 1024 1024" version="1.1" xmlns="http://www.w3.org/2000/svg"><path d="M854.584889 288.711111L639.431111 73.386667c-6.001778-5.973333-14.222222-9.386667-22.698667-9.386667H192c-17.692444 0-32 14.307556-32 32v832c0 17.692444 14.307556 32 32 32h640c17.692444 0 32-14.307556 32-32v-616.675556c0-8.533333-3.413333-16.64-9.386667-22.613333z m-454.599111 113.294222a39.992889 39.992889 0 1 1 0.028444 79.985778 39.992889 39.992889 0 0 1 0-79.985778zM696.035556 696.007111H327.964444a7.964444 7.964444 0 0 1-6.286222-12.913778l99.783111-127.203555a7.964444 7.964444 0 0 1 12.600889 0l41.102222 52.423111 77.795556-99.214222a7.992889 7.992889 0 0 1 12.600889 0l136.533333 173.994666a7.879111 7.879111 0 0 1-6.115555 12.913778zM601.998222 325.973333V137.813333l188.188445 188.188445h-188.188445z"  /></svg>