<svg class="svg-icon" style="width: 1em; height: 1em;vertical-align: middle;fill: currentColor;overflow: hidden;" viewBox="0 0 1024 1024" version="1.1" xmlns="http://www.w3.org/2000/svg"><path d="M303.36 363.733333l-60.373333-60.373333c-38.4 49.493333-62.08 106.666667-69.333334 165.973333h86.186667c6.186667-37.333333 20.693333-73.386667 43.52-105.6zM259.84 554.666667H173.653333c7.253333 59.306667 30.933333 116.48 69.333334 165.973333l60.373333-60.373333A254.08 254.08 0 0 1 259.84 554.666667z m43.093333 226.773333c49.493333 38.613333 107.093333 61.44 166.4 68.693333v-86.186666c-37.333333-6.186667-73.173333-20.906667-105.173333-43.733334l-61.226667 61.226667zM554.666667 173.653333V42.666667l-194.133334 194.133333L554.666667 426.666667v-166.826667c120.96 20.266667 213.333333 125.44 213.333333 252.16s-92.373333 231.893333-213.333333 252.16v86.186667c168.32-21.12 298.666667-164.266667 298.666666-338.346667S722.986667 194.773333 554.666667 173.653333z"  /></svg>